<svg xmlns="http://www.w3.org/2000/svg" viewBox="0 0 1200 1080" width="1200" height="1080" preserveAspectRatio="xMidYMid slice">
<defs>

<filter id="soft6" x="-25%" y="-25%" width="150%" height="150%">
  <feGaussianBlur stdDeviation="6"/>
</filter>
<filter id="far" x="-20%" y="-20%" width="140%" height="140%">
  <feGaussianBlur stdDeviation="4"/>
</filter>
<filter id="bloom" x="-70%" y="-70%" width="240%" height="240%">
  <feGaussianBlur stdDeviation="22" result="b"/>
  <feMerge><feMergeNode in="b"/><feMergeNode in="SourceGraphic"/></feMerge>
</filter>
<filter id="grainf" x="0" y="0" width="100%" height="100%">
  <feTurbulence type="fractalNoise" baseFrequency="0.8" numOctaves="2" seed="7" stitchTiles="stitch"/>
  <feColorMatrix type="saturate" values="0"/>
</filter>
<filter id="cloud" x="-10%" y="-10%" width="120%" height="120%">
  <feTurbulence type="fractalNoise" baseFrequency="0.006 0.013" numOctaves="4" seed="3"/>
  <feColorMatrix type="saturate" values="0"/>
  <feComponentTransfer><feFuncA type="linear" slope="0.5" intercept="-0.09"/></feComponentTransfer>
</filter>
<filter id="ripplef" x="-5%" y="-5%" width="110%" height="110%">
  <feTurbulence type="fractalNoise" baseFrequency="0.004 0.055" numOctaves="3" seed="11"/>
  <feColorMatrix type="saturate" values="0"/>
  <feComponentTransfer><feFuncA type="linear" slope="0.45" intercept="-0.07"/></feComponentTransfer>
</filter>
<filter id="woodf" x="0" y="0" width="100%" height="100%">
  <feTurbulence type="fractalNoise" baseFrequency="0.55 0.014" numOctaves="3" seed="5"/>
  <feColorMatrix type="saturate" values="0"/>
  <feComponentTransfer><feFuncA type="linear" slope="0.32" intercept="-0.05"/></feComponentTransfer>
</filter>
<linearGradient id="sky" x1="0" y1="0" x2="0" y2="1"><stop offset="0" stop-color="#1a2634" stop-opacity="1"/><stop offset="0.42" stop-color="#2e3f52" stop-opacity="1"/><stop offset="0.78" stop-color="#48596c" stop-opacity="1"/><stop offset="1" stop-color="#5a6a7c" stop-opacity="1"/></linearGradient>
   <linearGradient id="hill" x1="0" y1="0" x2="0" y2="1"><stop offset="0" stop-color="#233040" stop-opacity="1"/><stop offset="1" stop-color="#131b24" stop-opacity="1"/></linearGradient>
   <linearGradient id="wall" x1="0" y1="0" x2="0" y2="1"><stop offset="0" stop-color="#1d2732" stop-opacity="1"/><stop offset="1" stop-color="#111820" stop-opacity="1"/></linearGradient>
   <radialGradient id="warm"><stop offset="0" stop-color="#f0c479" stop-opacity="0.6"/><stop offset="0.45" stop-color="#c99a4e" stop-opacity="0.22"/><stop offset="1" stop-color="#c99a4e" stop-opacity="0"/></radialGradient>
   <radialGradient id="moon"><stop offset="0" stop-color="#c3d4e4" stop-opacity="0.34"/><stop offset="1" stop-color="#c3d4e4" stop-opacity="0"/></radialGradient>
</defs>
<rect width="1200" height="1080" fill="url(#sky)"/>
<circle cx="890" cy="205" r="300" fill="url(#moon)"/>
<rect x="0" y="0" width="1200" height="560" fill="#8ea3ba" filter="url(#cloud)" opacity="0.2"/>
<g filter="url(#far)" opacity="0.45" fill="#2c3a4a">
  <ellipse cx="150" cy="640" rx="230" ry="70"/>
  <ellipse cx="1060" cy="620" rx="210" ry="62"/>
  <ellipse cx="600" cy="655" rx="280" ry="52"/>
</g>
<path d="M0 640 q300 -60 620 -44 q320 16 580 -30 v514 H0 z" fill="url(#hill)"/>
<g>
  <rect x="392" y="392" width="416" height="268" fill="url(#wall)"/>
  <path d="M368 392 L600 258 L832 392 z" fill="#161e27"/>
  <path d="M368 392 L600 258 L600 392 z" fill="#1c2530"/>
  <rect x="806" y="472" width="118" height="188" fill="#151c25"/>
  <path d="M792 472 L865 418 L938 472 z" fill="#131a22"/>
  <rect x="466" y="236" width="44" height="86" fill="#141b23"/>
  <rect x="690" y="222" width="44" height="100" fill="#141b23"/>
  <rect x="460" y="228" width="56" height="14" fill="#1e2833"/>
  <rect x="684" y="214" width="56" height="14" fill="#1e2833"/>
  <path d="M368 392 L600 258 L605 263 L377 397 z" fill="#3d4d5e" opacity="0.75"/>
  <rect x="392" y="392" width="416" height="5" fill="#39485a" opacity="0.55"/>
</g>
<g>
  <circle cx="485" cy="500" r="240" fill="url(#warm)"/>
  <rect x="452" y="452" width="66" height="96" rx="2" fill="#f2cd8a" filter="url(#bloom)" opacity="0.9"/>
  <line x1="485" y1="452" x2="485" y2="548" stroke="#0d1013" stroke-width="3.3000000000000003"/>
  <line x1="452" y1="492.32" x2="518" y2="492.32" stroke="#0d1013" stroke-width="3.3000000000000003"/>
</g>
<g>
  <circle cx="705" cy="500" r="240" fill="url(#warm)"/>
  <rect x="672" y="452" width="66" height="96" rx="2" fill="#f2cd8a" filter="url(#bloom)" opacity="0.9"/>
  <line x1="705" y1="452" x2="705" y2="548" stroke="#0d1013" stroke-width="3.3000000000000003"/>
  <line x1="672" y1="492.32" x2="738" y2="492.32" stroke="#0d1013" stroke-width="3.3000000000000003"/>
</g>
<g>
  <circle cx="862" cy="559" r="185" fill="url(#warm)"/>
  <rect x="836" y="522" width="52" height="74" rx="2" fill="#f2cd8a" filter="url(#bloom)" opacity="0.9"/>
  <line x1="862" y1="522" x2="862" y2="596" stroke="#0d1013" stroke-width="2.6"/>
  <line x1="836" y1="553.08" x2="888" y2="553.08" stroke="#0d1013" stroke-width="2.6"/>
</g>
<rect x="566" y="556" width="68" height="104" rx="4" fill="#0f151c"/>
<rect x="566" y="556" width="68" height="104" rx="4" fill="none" stroke="#3a4a5c" stroke-width="3"/>
<g opacity="0.5" filter="url(#far)"><path d="M16 716 q5 -78.36 10 -156.72" stroke="#3a4757" stroke-width="1.6" fill="none" stroke-linecap="round"/><ellipse cx="26" cy="559.28" rx="2.1" ry="7.1" fill="#3a4757"/><path d="M42.27272727272727 716 q10 -52.980000000000004 20 -105.96000000000001" stroke="#3a4757" stroke-width="3.4000000000000004" fill="none" stroke-linecap="round"/><ellipse cx="62.27272727272727" cy="610.04" rx="4.4" ry="4.8" fill="#3a4757"/><path d="M68.54545454545455 716 q-7.5 -81.60000000000001 -15 -163.20000000000002" stroke="#3a4757" stroke-width="2.5" fill="none" stroke-linecap="round"/><ellipse cx="53.54545454545455" cy="552.8" rx="3.3" ry="7.3" fill="#3a4757"/><path d="M94.81818181818181 716 q-2.5 -56.220000000000006 -5 -112.44000000000001" stroke="#3a4757" stroke-width="1.6" fill="none" stroke-linecap="round"/><ellipse cx="89.81818181818181" cy="603.56" rx="2.1" ry="5.1" fill="#3a4757"/><path d="M121.0909090909091 716 q2.5 -84.84 5 -169.68" stroke="#3a4757" stroke-width="3.4000000000000004" fill="none" stroke-linecap="round"/><ellipse cx="126.0909090909091" cy="546.3199999999999" rx="4.4" ry="7.6" fill="#3a4757"/><path d="M147.36363636363637 716 q7.5 -59.459999999999994 15 -118.91999999999999" stroke="#3a4757" stroke-width="2.5" fill="none" stroke-linecap="round"/><ellipse cx="162.36363636363637" cy="597.08" rx="3.3" ry="5.4" fill="#3a4757"/><path d="M173.63636363636363 716 q-10 -88.08 -20 -176.16" stroke="#3a4757" stroke-width="1.6" fill="none" stroke-linecap="round"/><ellipse cx="153.63636363636363" cy="539.84" rx="2.1" ry="7.9" fill="#3a4757"/><path d="M199.9090909090909 716 q-5 -62.699999999999996 -10 -125.39999999999999" stroke="#3a4757" stroke-width="3.4000000000000004" fill="none" stroke-linecap="round"/><ellipse cx="189.9090909090909" cy="590.6" rx="4.4" ry="5.6" fill="#3a4757"/><path d="M226.1818181818182 716 q0 -91.32000000000001 0 -182.64000000000001" stroke="#3a4757" stroke-width="2.5" fill="none" stroke-linecap="round"/><ellipse cx="226.1818181818182" cy="533.36" rx="3.3" ry="8.2" fill="#3a4757"/><path d="M252.45454545454547 716 q5 -65.94 10 -131.88" stroke="#3a4757" stroke-width="1.6" fill="none" stroke-linecap="round"/><ellipse cx="262.4545454545455" cy="584.12" rx="2.1" ry="5.9" fill="#3a4757"/><path d="M278.72727272727275 716 q10 -94.56000000000002 20 -189.12000000000003" stroke="#3a4757" stroke-width="3.4000000000000004" fill="none" stroke-linecap="round"/><ellipse cx="298.72727272727275" cy="526.88" rx="4.4" ry="8.5" fill="#3a4757"/><path d="M305 716 q-7.5 -69.18 -15 -138.36" stroke="#3a4757" stroke-width="2.5" fill="none" stroke-linecap="round"/><ellipse cx="290" cy="577.64" rx="3.3" ry="6.2" fill="#3a4757"/><path d="M331.27272727272725 716 q-2.5 -97.79999999999998 -5 -195.59999999999997" stroke="#3a4757" stroke-width="1.6" fill="none" stroke-linecap="round"/><ellipse cx="326.27272727272725" cy="520.4000000000001" rx="2.1" ry="8.8" fill="#3a4757"/><path d="M357.54545454545456 716 q2.5 -72.42 5 -144.84" stroke="#3a4757" stroke-width="3.4000000000000004" fill="none" stroke-linecap="round"/><ellipse cx="362.54545454545456" cy="571.16" rx="4.4" ry="6.5" fill="#3a4757"/><path d="M383.8181818181818 716 q7.5 -47.04 15 -94.08" stroke="#3a4757" stroke-width="2.5" fill="none" stroke-linecap="round"/><ellipse cx="398.8181818181818" cy="621.92" rx="3.3" ry="4.2" fill="#3a4757"/><path d="M410.0909090909091 716 q-10 -75.66 -20 -151.32" stroke="#3a4757" stroke-width="1.6" fill="none" stroke-linecap="round"/><ellipse cx="390.0909090909091" cy="564.6800000000001" rx="2.1" ry="6.8" fill="#3a4757"/><path d="M436.3636363636364 716 q-5 -50.28 -10 -100.56" stroke="#3a4757" stroke-width="3.4000000000000004" fill="none" stroke-linecap="round"/><ellipse cx="426.3636363636364" cy="615.44" rx="4.4" ry="4.5" fill="#3a4757"/><path d="M481.6363636363636 716 q0 -78.9 0 -157.8" stroke="#3a4757" stroke-width="2.5" fill="none" stroke-linecap="round"/><ellipse cx="481.6363636363636" cy="558.2" rx="3.3" ry="7.1" fill="#3a4757"/><path d="M507.90909090909093 716 q5 -53.52 10 -107.04" stroke="#3a4757" stroke-width="1.6" fill="none" stroke-linecap="round"/><ellipse cx="517.909090909091" cy="608.96" rx="2.1" ry="4.8" fill="#3a4757"/><path d="M534.1818181818182 716 q10 -82.14 20 -164.28" stroke="#3a4757" stroke-width="3.4000000000000004" fill="none" stroke-linecap="round"/><ellipse cx="554.1818181818182" cy="551.72" rx="4.4" ry="7.4" fill="#3a4757"/><path d="M560.4545454545455 716 q-7.5 -56.760000000000005 -15 -113.52000000000001" stroke="#3a4757" stroke-width="2.5" fill="none" stroke-linecap="round"/><ellipse cx="545.4545454545455" cy="602.48" rx="3.3" ry="5.1" fill="#3a4757"/><path d="M586.7272727272727 716 q-2.5 -85.38 -5 -170.76" stroke="#3a4757" stroke-width="1.6" fill="none" stroke-linecap="round"/><ellipse cx="581.7272727272727" cy="545.24" rx="2.1" ry="7.7" fill="#3a4757"/><path d="M613 716 q2.5 -60 5 -120" stroke="#3a4757" stroke-width="3.4000000000000004" fill="none" stroke-linecap="round"/><ellipse cx="618" cy="596" rx="4.4" ry="5.4" fill="#3a4757"/><path d="M639.2727272727273 716 q7.5 -88.62 15 -177.24" stroke="#3a4757" stroke-width="2.5" fill="none" stroke-linecap="round"/><ellipse cx="654.2727272727273" cy="538.76" rx="3.3" ry="8.0" fill="#3a4757"/><path d="M665.5454545454545 716 q-10 -63.239999999999995 -20 -126.47999999999999" stroke="#3a4757" stroke-width="1.6" fill="none" stroke-linecap="round"/><ellipse cx="645.5454545454545" cy="589.52" rx="2.1" ry="5.7" fill="#3a4757"/><path d="M691.8181818181819 716 q-5 -91.86000000000001 -10 -183.72000000000003" stroke="#3a4757" stroke-width="3.4000000000000004" fill="none" stroke-linecap="round"/><ellipse cx="681.8181818181819" cy="532.28" rx="4.4" ry="8.3" fill="#3a4757"/><path d="M718.0909090909091 716 q0 -66.48 0 -132.96" stroke="#3a4757" stroke-width="2.5" fill="none" stroke-linecap="round"/><ellipse cx="718.0909090909091" cy="583.04" rx="3.3" ry="6.0" fill="#3a4757"/><path d="M744.3636363636364 716 q5 -95.1 10 -190.2" stroke="#3a4757" stroke-width="1.6" fill="none" stroke-linecap="round"/><ellipse cx="754.3636363636364" cy="525.8" rx="2.1" ry="8.6" fill="#3a4757"/><path d="M770.6363636363636 716 q10 -69.72 20 -139.44" stroke="#3a4757" stroke-width="3.4000000000000004" fill="none" stroke-linecap="round"/><ellipse cx="790.6363636363636" cy="576.56" rx="4.4" ry="6.3" fill="#3a4757"/><path d="M796.9090909090909 716 q-7.5 -98.33999999999999 -15 -196.67999999999998" stroke="#3a4757" stroke-width="2.5" fill="none" stroke-linecap="round"/><ellipse cx="781.9090909090909" cy="519.32" rx="3.3" ry="8.9" fill="#3a4757"/><path d="M823.1818181818182 716 q-2.5 -72.96 -5 -145.92" stroke="#3a4757" stroke-width="1.6" fill="none" stroke-linecap="round"/><ellipse cx="818.1818181818182" cy="570.08" rx="2.1" ry="6.6" fill="#3a4757"/><path d="M849.4545454545455 716 q2.5 -47.58 5 -95.16" stroke="#3a4757" stroke-width="3.4000000000000004" fill="none" stroke-linecap="round"/><ellipse cx="854.4545454545455" cy="620.84" rx="4.4" ry="4.3" fill="#3a4757"/><path d="M875.7272727272727 716 q7.5 -76.2 15 -152.4" stroke="#3a4757" stroke-width="2.5" fill="none" stroke-linecap="round"/><ellipse cx="890.7272727272727" cy="563.6" rx="3.3" ry="6.9" fill="#3a4757"/><path d="M902 716 q-10 -50.82 -20 -101.64" stroke="#3a4757" stroke-width="1.6" fill="none" stroke-linecap="round"/><ellipse cx="882" cy="614.36" rx="2.1" ry="4.6" fill="#3a4757"/><path d="M928.2727272727273 716 q-5 -79.44 -10 -158.88" stroke="#3a4757" stroke-width="3.4000000000000004" fill="none" stroke-linecap="round"/><ellipse cx="918.2727272727273" cy="557.12" rx="4.4" ry="7.1" fill="#3a4757"/><path d="M954.5454545454546 716 q0 -54.06 0 -108.12" stroke="#3a4757" stroke-width="2.5" fill="none" stroke-linecap="round"/><ellipse cx="954.5454545454546" cy="607.88" rx="3.3" ry="4.9" fill="#3a4757"/><path d="M999.8181818181819 716 q5 -82.68 10 -165.36" stroke="#3a4757" stroke-width="1.6" fill="none" stroke-linecap="round"/><ellipse cx="1009.8181818181819" cy="550.64" rx="2.1" ry="7.4" fill="#3a4757"/><path d="M1026.090909090909 716 q10 -57.300000000000004 20 -114.60000000000001" stroke="#3a4757" stroke-width="3.4000000000000004" fill="none" stroke-linecap="round"/><ellipse cx="1046.090909090909" cy="601.4" rx="4.4" ry="5.2" fill="#3a4757"/><path d="M1052.3636363636365 716 q-7.5 -85.92 -15 -171.84" stroke="#3a4757" stroke-width="2.5" fill="none" stroke-linecap="round"/><ellipse cx="1037.3636363636365" cy="544.16" rx="3.3" ry="7.7" fill="#3a4757"/><path d="M1078.6363636363637 716 q-2.5 -60.54 -5 -121.08" stroke="#3a4757" stroke-width="1.6" fill="none" stroke-linecap="round"/><ellipse cx="1073.6363636363637" cy="594.92" rx="2.1" ry="5.4" fill="#3a4757"/><path d="M1104.909090909091 716 q2.5 -89.16000000000001 5 -178.32000000000002" stroke="#3a4757" stroke-width="3.4000000000000004" fill="none" stroke-linecap="round"/><ellipse cx="1109.909090909091" cy="537.68" rx="4.4" ry="8.0" fill="#3a4757"/><path d="M1131.1818181818182 716 q7.5 -63.78 15 -127.56" stroke="#3a4757" stroke-width="2.5" fill="none" stroke-linecap="round"/><ellipse cx="1146.1818181818182" cy="588.44" rx="3.3" ry="5.7" fill="#3a4757"/><path d="M1157.4545454545455 716 q-10 -92.4 -20 -184.8" stroke="#3a4757" stroke-width="1.6" fill="none" stroke-linecap="round"/><ellipse cx="1137.4545454545455" cy="531.2" rx="2.1" ry="8.3" fill="#3a4757"/><path d="M1183.7272727272727 716 q-5 -67.02 -10 -134.04" stroke="#3a4757" stroke-width="3.4000000000000004" fill="none" stroke-linecap="round"/><ellipse cx="1173.7272727272727" cy="581.96" rx="4.4" ry="6.0" fill="#3a4757"/></g>
<g opacity="0.85"><path d="M8 806 q0 -121.76 0 -243.52" stroke="#232e3b" stroke-width="2.5" fill="none" stroke-linecap="round"/><ellipse cx="8" cy="562.48" rx="3.3" ry="11.0" fill="#232e3b"/><path d="M38.578947368421055 806 q5 -87.92 10 -175.84" stroke="#232e3b" stroke-width="1.6" fill="none" stroke-linecap="round"/><ellipse cx="48.578947368421055" cy="630.16" rx="2.1" ry="7.9" fill="#232e3b"/><path d="M69.15789473684211 806 q10 -126.08000000000001 20 -252.16000000000003" stroke="#232e3b" stroke-width="3.4000000000000004" fill="none" stroke-linecap="round"/><ellipse cx="89.15789473684211" cy="553.8399999999999" rx="4.4" ry="11.3" fill="#232e3b"/><path d="M99.73684210526315 806 q-7.5 -92.24 -15 -184.48" stroke="#232e3b" stroke-width="2.5" fill="none" stroke-linecap="round"/><ellipse cx="84.73684210526315" cy="621.52" rx="3.3" ry="8.3" fill="#232e3b"/><path d="M130.31578947368422 806 q-2.5 -130.39999999999998 -5 -260.79999999999995" stroke="#232e3b" stroke-width="1.6" fill="none" stroke-linecap="round"/><ellipse cx="125.31578947368422" cy="545.2" rx="2.1" ry="11.7" fill="#232e3b"/><path d="M160.89473684210526 806 q2.5 -96.56 5 -193.12" stroke="#232e3b" stroke-width="3.4000000000000004" fill="none" stroke-linecap="round"/><ellipse cx="165.89473684210526" cy="612.88" rx="4.4" ry="8.7" fill="#232e3b"/><path d="M191.4736842105263 806 q7.5 -62.72 15 -125.44" stroke="#232e3b" stroke-width="2.5" fill="none" stroke-linecap="round"/><ellipse cx="206.4736842105263" cy="680.56" rx="3.3" ry="5.6" fill="#232e3b"/><path d="M222.05263157894737 806 q-10 -100.88 -20 -201.76" stroke="#232e3b" stroke-width="1.6" fill="none" stroke-linecap="round"/><ellipse cx="202.05263157894737" cy="604.24" rx="2.1" ry="9.1" fill="#232e3b"/><path d="M252.6315789473684 806 q-5 -67.04 -10 -134.08" stroke="#232e3b" stroke-width="3.4000000000000004" fill="none" stroke-linecap="round"/><ellipse cx="242.6315789473684" cy="671.92" rx="4.4" ry="6.0" fill="#232e3b"/><path d="M302.2105263157895 806 q0 -105.2 0 -210.4" stroke="#232e3b" stroke-width="2.5" fill="none" stroke-linecap="round"/><ellipse cx="302.2105263157895" cy="595.6" rx="3.3" ry="9.5" fill="#232e3b"/><path d="M332.7894736842105 806 q5 -71.36 10 -142.72" stroke="#232e3b" stroke-width="1.6" fill="none" stroke-linecap="round"/><ellipse cx="342.7894736842105" cy="663.28" rx="2.1" ry="6.4" fill="#232e3b"/><path d="M363.36842105263156 806 q10 -109.52 20 -219.04" stroke="#232e3b" stroke-width="3.4000000000000004" fill="none" stroke-linecap="round"/><ellipse cx="383.36842105263156" cy="586.96" rx="4.4" ry="9.9" fill="#232e3b"/><path d="M393.9473684210526 806 q-7.5 -75.68 -15 -151.36" stroke="#232e3b" stroke-width="2.5" fill="none" stroke-linecap="round"/><ellipse cx="378.9473684210526" cy="654.64" rx="3.3" ry="6.8" fill="#232e3b"/><path d="M424.52631578947364 806 q-2.5 -113.83999999999999 -5 -227.67999999999998" stroke="#232e3b" stroke-width="1.6" fill="none" stroke-linecap="round"/><ellipse cx="419.52631578947364" cy="578.32" rx="2.1" ry="10.2" fill="#232e3b"/><path d="M455.10526315789474 806 q2.5 -80 5 -160" stroke="#232e3b" stroke-width="3.4000000000000004" fill="none" stroke-linecap="round"/><ellipse cx="460.10526315789474" cy="646" rx="4.4" ry="7.2" fill="#232e3b"/><path d="M485.6842105263158 806 q7.5 -118.16 15 -236.32" stroke="#232e3b" stroke-width="2.5" fill="none" stroke-linecap="round"/><ellipse cx="500.6842105263158" cy="569.6800000000001" rx="3.3" ry="10.6" fill="#232e3b"/><path d="M516.2631578947369 806 q-10 -84.32 -20 -168.64" stroke="#232e3b" stroke-width="1.6" fill="none" stroke-linecap="round"/><ellipse cx="496.2631578947369" cy="637.36" rx="2.1" ry="7.6" fill="#232e3b"/><path d="M546.8421052631579 806 q-5 -122.48000000000002 -10 -244.96000000000004" stroke="#232e3b" stroke-width="3.4000000000000004" fill="none" stroke-linecap="round"/><ellipse cx="536.8421052631579" cy="561.04" rx="4.4" ry="11.0" fill="#232e3b"/><path d="M577.421052631579 806 q0 -88.64 0 -177.28" stroke="#232e3b" stroke-width="2.5" fill="none" stroke-linecap="round"/><ellipse cx="577.421052631579" cy="628.72" rx="3.3" ry="8.0" fill="#232e3b"/><path d="M608 806 q5 -126.8 10 -253.6" stroke="#232e3b" stroke-width="1.6" fill="none" stroke-linecap="round"/><ellipse cx="618" cy="552.4" rx="2.1" ry="11.4" fill="#232e3b"/><path d="M638.578947368421 806 q10 -92.96 20 -185.92" stroke="#232e3b" stroke-width="3.4000000000000004" fill="none" stroke-linecap="round"/><ellipse cx="658.578947368421" cy="620.08" rx="4.4" ry="8.4" fill="#232e3b"/><path d="M669.1578947368421 806 q-7.5 -131.12 -15 -262.24" stroke="#232e3b" stroke-width="2.5" fill="none" stroke-linecap="round"/><ellipse cx="654.1578947368421" cy="543.76" rx="3.3" ry="11.8" fill="#232e3b"/><path d="M699.7368421052631 806 q-2.5 -97.28 -5 -194.56" stroke="#232e3b" stroke-width="1.6" fill="none" stroke-linecap="round"/><ellipse cx="694.7368421052631" cy="611.44" rx="2.1" ry="8.8" fill="#232e3b"/><path d="M730.3157894736842 806 q2.5 -63.44 5 -126.88" stroke="#232e3b" stroke-width="3.4000000000000004" fill="none" stroke-linecap="round"/><ellipse cx="735.3157894736842" cy="679.12" rx="4.4" ry="5.7" fill="#232e3b"/><path d="M760.8947368421052 806 q7.5 -101.6 15 -203.2" stroke="#232e3b" stroke-width="2.5" fill="none" stroke-linecap="round"/><ellipse cx="775.8947368421052" cy="602.8" rx="3.3" ry="9.1" fill="#232e3b"/><path d="M791.4736842105262 806 q-10 -67.75999999999999 -20 -135.51999999999998" stroke="#232e3b" stroke-width="1.6" fill="none" stroke-linecap="round"/><ellipse cx="771.4736842105262" cy="670.48" rx="2.1" ry="6.1" fill="#232e3b"/><path d="M822.0526315789473 806 q-5 -105.91999999999999 -10 -211.83999999999997" stroke="#232e3b" stroke-width="3.4000000000000004" fill="none" stroke-linecap="round"/><ellipse cx="812.0526315789473" cy="594.1600000000001" rx="4.4" ry="9.5" fill="#232e3b"/><path d="M852.6315789473684 806 q0 -72.08 0 -144.16" stroke="#232e3b" stroke-width="2.5" fill="none" stroke-linecap="round"/><ellipse cx="852.6315789473684" cy="661.84" rx="3.3" ry="6.5" fill="#232e3b"/><path d="M902.2105263157895 806 q5 -110.24000000000001 10 -220.48000000000002" stroke="#232e3b" stroke-width="1.6" fill="none" stroke-linecap="round"/><ellipse cx="912.2105263157895" cy="585.52" rx="2.1" ry="9.9" fill="#232e3b"/><path d="M932.7894736842105 806 q10 -76.4 20 -152.8" stroke="#232e3b" stroke-width="3.4000000000000004" fill="none" stroke-linecap="round"/><ellipse cx="952.7894736842105" cy="653.2" rx="4.4" ry="6.9" fill="#232e3b"/><path d="M963.3684210526316 806 q-7.5 -114.56 -15 -229.12" stroke="#232e3b" stroke-width="2.5" fill="none" stroke-linecap="round"/><ellipse cx="948.3684210526316" cy="576.88" rx="3.3" ry="10.3" fill="#232e3b"/><path d="M993.9473684210526 806 q-2.5 -80.72 -5 -161.44" stroke="#232e3b" stroke-width="1.6" fill="none" stroke-linecap="round"/><ellipse cx="988.9473684210526" cy="644.56" rx="2.1" ry="7.3" fill="#232e3b"/><path d="M1024.5263157894738 806 q2.5 -118.88000000000001 5 -237.76000000000002" stroke="#232e3b" stroke-width="3.4000000000000004" fill="none" stroke-linecap="round"/><ellipse cx="1029.5263157894738" cy="568.24" rx="4.4" ry="10.7" fill="#232e3b"/><path d="M1055.1052631578948 806 q7.5 -85.04 15 -170.08" stroke="#232e3b" stroke-width="2.5" fill="none" stroke-linecap="round"/><ellipse cx="1070.1052631578948" cy="635.92" rx="3.3" ry="7.7" fill="#232e3b"/><path d="M1085.6842105263158 806 q-10 -123.2 -20 -246.4" stroke="#232e3b" stroke-width="1.6" fill="none" stroke-linecap="round"/><ellipse cx="1065.6842105263158" cy="559.6" rx="2.1" ry="11.1" fill="#232e3b"/><path d="M1116.2631578947369 806 q-5 -89.36 -10 -178.72" stroke="#232e3b" stroke-width="3.4000000000000004" fill="none" stroke-linecap="round"/><ellipse cx="1106.2631578947369" cy="627.28" rx="4.4" ry="8.0" fill="#232e3b"/><path d="M1146.842105263158 806 q0 -127.51999999999998 0 -255.03999999999996" stroke="#232e3b" stroke-width="2.5" fill="none" stroke-linecap="round"/><ellipse cx="1146.842105263158" cy="550.96" rx="3.3" ry="11.5" fill="#232e3b"/><path d="M1177.421052631579 806 q5 -93.67999999999999 10 -187.35999999999999" stroke="#232e3b" stroke-width="1.6" fill="none" stroke-linecap="round"/><ellipse cx="1187.421052631579" cy="618.64" rx="2.1" ry="8.4" fill="#232e3b"/></g>
<g opacity="0.95"><path d="M15 1030 q-7.5 -113.52000000000001 -15 -227.04000000000002" stroke="#0f151c" stroke-width="2.5" fill="none" stroke-linecap="round"/><ellipse cx="0" cy="802.96" rx="3.3" ry="10.2" fill="#0f151c"/><path d="M60.15384615384615 1030 q-2.5 -170.76 -5 -341.52" stroke="#0f151c" stroke-width="1.6" fill="none" stroke-linecap="round"/><ellipse cx="55.15384615384615" cy="688.48" rx="2.1" ry="15.4" fill="#0f151c"/><path d="M105.3076923076923 1030 q2.5 -120 5 -240" stroke="#0f151c" stroke-width="3.4000000000000004" fill="none" stroke-linecap="round"/><ellipse cx="110.3076923076923" cy="790" rx="4.4" ry="10.8" fill="#0f151c"/><path d="M150.46153846153845 1030 q7.5 -177.24 15 -354.48" stroke="#0f151c" stroke-width="2.5" fill="none" stroke-linecap="round"/><ellipse cx="165.46153846153845" cy="675.52" rx="3.3" ry="16.0" fill="#0f151c"/><path d="M195.6153846153846 1030 q-10 -126.47999999999999 -20 -252.95999999999998" stroke="#0f151c" stroke-width="1.6" fill="none" stroke-linecap="round"/><ellipse cx="175.6153846153846" cy="777.04" rx="2.1" ry="11.4" fill="#0f151c"/><path d="M240.76923076923077 1030 q-5 -183.72000000000003 -10 -367.44000000000005" stroke="#0f151c" stroke-width="3.4000000000000004" fill="none" stroke-linecap="round"/><ellipse cx="230.76923076923077" cy="662.56" rx="4.4" ry="16.5" fill="#0f151c"/><path d="M285.9230769230769 1030 q0 -132.96 0 -265.92" stroke="#0f151c" stroke-width="2.5" fill="none" stroke-linecap="round"/><ellipse cx="285.9230769230769" cy="764.0799999999999" rx="3.3" ry="12.0" fill="#0f151c"/><path d="M331.0769230769231 1030 q5 -190.2 10 -380.4" stroke="#0f151c" stroke-width="1.6" fill="none" stroke-linecap="round"/><ellipse cx="341.0769230769231" cy="649.6" rx="2.1" ry="17.1" fill="#0f151c"/><path d="M376.2307692307692 1030 q10 -139.44 20 -278.88" stroke="#0f151c" stroke-width="3.4000000000000004" fill="none" stroke-linecap="round"/><ellipse cx="396.2307692307692" cy="751.12" rx="4.4" ry="12.5" fill="#0f151c"/><path d="M421.38461538461536 1030 q-7.5 -196.67999999999998 -15 -393.35999999999996" stroke="#0f151c" stroke-width="2.5" fill="none" stroke-linecap="round"/><ellipse cx="406.38461538461536" cy="636.6400000000001" rx="3.3" ry="17.7" fill="#0f151c"/><path d="M466.53846153846155 1030 q-2.5 -145.92 -5 -291.84" stroke="#0f151c" stroke-width="1.6" fill="none" stroke-linecap="round"/><ellipse cx="461.53846153846155" cy="738.1600000000001" rx="2.1" ry="13.1" fill="#0f151c"/><path d="M511.6923076923077 1030 q2.5 -95.16 5 -190.32" stroke="#0f151c" stroke-width="3.4000000000000004" fill="none" stroke-linecap="round"/><ellipse cx="516.6923076923076" cy="839.6800000000001" rx="4.4" ry="8.6" fill="#0f151c"/><path d="M556.8461538461538 1030 q7.5 -152.4 15 -304.8" stroke="#0f151c" stroke-width="2.5" fill="none" stroke-linecap="round"/><ellipse cx="571.8461538461538" cy="725.2" rx="3.3" ry="13.7" fill="#0f151c"/><path d="M602 1030 q-10 -101.64 -20 -203.28" stroke="#0f151c" stroke-width="1.6" fill="none" stroke-linecap="round"/><ellipse cx="582" cy="826.72" rx="2.1" ry="9.1" fill="#0f151c"/><path d="M647.1538461538462 1030 q-5 -158.88 -10 -317.76" stroke="#0f151c" stroke-width="3.4000000000000004" fill="none" stroke-linecap="round"/><ellipse cx="637.1538461538462" cy="712.24" rx="4.4" ry="14.3" fill="#0f151c"/><path d="M692.3076923076923 1030 q0 -108.12 0 -216.24" stroke="#0f151c" stroke-width="2.5" fill="none" stroke-linecap="round"/><ellipse cx="692.3076923076923" cy="813.76" rx="3.3" ry="9.7" fill="#0f151c"/><path d="M756.4615384615385 1030 q5 -165.36 10 -330.72" stroke="#0f151c" stroke-width="1.6" fill="none" stroke-linecap="round"/><ellipse cx="766.4615384615385" cy="699.28" rx="2.1" ry="14.9" fill="#0f151c"/><path d="M801.6153846153846 1030 q10 -114.60000000000001 20 -229.20000000000002" stroke="#0f151c" stroke-width="3.4000000000000004" fill="none" stroke-linecap="round"/><ellipse cx="821.6153846153846" cy="800.8" rx="4.4" ry="10.3" fill="#0f151c"/><path d="M846.7692307692307 1030 q-7.5 -171.84 -15 -343.68" stroke="#0f151c" stroke-width="2.5" fill="none" stroke-linecap="round"/><ellipse cx="831.7692307692307" cy="686.3199999999999" rx="3.3" ry="15.5" fill="#0f151c"/><path d="M891.9230769230769 1030 q-2.5 -121.08 -5 -242.16" stroke="#0f151c" stroke-width="1.6" fill="none" stroke-linecap="round"/><ellipse cx="886.9230769230769" cy="787.84" rx="2.1" ry="10.9" fill="#0f151c"/><path d="M937.0769230769231 1030 q2.5 -178.32000000000002 5 -356.64000000000004" stroke="#0f151c" stroke-width="3.4000000000000004" fill="none" stroke-linecap="round"/><ellipse cx="942.0769230769231" cy="673.3599999999999" rx="4.4" ry="16.0" fill="#0f151c"/><path d="M982.2307692307692 1030 q7.5 -127.56 15 -255.12" stroke="#0f151c" stroke-width="2.5" fill="none" stroke-linecap="round"/><ellipse cx="997.2307692307692" cy="774.88" rx="3.3" ry="11.5" fill="#0f151c"/><path d="M1027.3846153846152 1030 q-10 -184.8 -20 -369.6" stroke="#0f151c" stroke-width="1.6" fill="none" stroke-linecap="round"/><ellipse cx="1007.3846153846152" cy="660.4" rx="2.1" ry="16.6" fill="#0f151c"/><path d="M1072.5384615384614 1030 q-5 -134.04 -10 -268.08" stroke="#0f151c" stroke-width="3.4000000000000004" fill="none" stroke-linecap="round"/><ellipse cx="1062.5384615384614" cy="761.9200000000001" rx="4.4" ry="12.1" fill="#0f151c"/><path d="M1117.6923076923076 1030 q0 -191.27999999999997 0 -382.55999999999995" stroke="#0f151c" stroke-width="2.5" fill="none" stroke-linecap="round"/><ellipse cx="1117.6923076923076" cy="647.44" rx="3.3" ry="17.2" fill="#0f151c"/><path d="M1162.8461538461538 1030 q5 -140.51999999999998 10 -281.03999999999996" stroke="#0f151c" stroke-width="1.6" fill="none" stroke-linecap="round"/><ellipse cx="1172.8461538461538" cy="748.96" rx="2.1" ry="12.6" fill="#0f151c"/></g>
<rect x="0" y="600" width="1200" height="480" fill="#39485a" filter="url(#cloud)" opacity="0.12"/>
<rect width="1200" height="1080" filter="url(#grainf)" opacity="0.05" style="mix-blend-mode:overlay"/>
</svg>
